<svg width="140" height="40" viewBox="0 0 420 120" xmlns="http://www.w3.org/2000/svg" fill="none" role="img" aria-label="Puffin Pay">
  <g transform="translate(0,0)">
    <circle cx="60" cy="60" r="58" fill="#E8F2FF" />
    <circle cx="60" cy="60" r="56" stroke="#60A5FA" stroke-width="3" />
    <ellipse cx="58" cy="67" rx="24" ry="22" fill="#FFFFFF" />
    <circle cx="51" cy="56" r="6" fill="#1E3A8A" />
    <circle cx="53" cy="54" r="2" fill="#FFFFFF" />
    <path d="M68 64C85 62 95 56 103 46C93 45 84 47 75 52C69 55 64 58 60 62" fill="#93C5FD" />
    <path d="M68 64C84 65 94 70 101 78C92 80 83 78 74 74C69 72 64 68 60 64" fill="#3B82F6" />
    <path d="M67 64C82 64 92 63 102 60C94 56 83 55 72 56" fill="#F59E0B" />
    <path d="M42 80C48 88 60 92 72 88" stroke="#2563EB" stroke-width="4" stroke-linecap="round" />
  </g>
  <text x="136" y="76" font-family="system-ui, -apple-system, 'Segoe UI', sans-serif" font-size="52" font-weight="800">
    <tspan fill="#F5F7FC">Puffin </tspan><tspan fill="#60A5FA">Pay</tspan>
  </text>
</svg>
